<svg xmlns="http://www.w3.org/2000/svg" viewBox="0 0 1280 320" width="1280" height="320">
  <defs>
    <linearGradient id="fortnitefpsboosterbnBg" x1="0%" y1="0%" x2="100%" y2="100%">
      <stop offset="0%" stop-color="#0d1117"/>
      <stop offset="100%" stop-color="#1a0a2e"/>
    </linearGradient>
    <linearGradient id="fortnitefpsboosterbnAc" x1="0%" y1="0%" x2="100%" y2="0%">
      <stop offset="0%" stop-color="#9d4edd"/>
      <stop offset="100%" stop-color="#c77dff"/>
    </linearGradient>
    <filter id="fortnitefpsboosterbnSh">
      <feDropShadow dx="0" dy="3" stdDeviation="6" flood-color="#000" flood-opacity="0.45"/>
    </filter>
    <pattern id="fortnitefpsboosterbnGrid" width="32" height="32" patternUnits="userSpaceOnUse">
      <path d="M 32 0 L 0 0 0 32" fill="none" stroke="#21262d" stroke-width="0.5"/>
    </pattern>
  </defs>

  <rect width="1280" height="320" fill="url(#fortnitefpsboosterbnBg)"/>
  <rect width="1280" height="320" fill="url(#fortnitefpsboosterbnGrid)" opacity="0.35"/>
  <rect x="0" y="0" width="1280" height="4" fill="url(#fortnitefpsboosterbnAc)"/>
  <rect x="0" y="316" width="1280" height="4" fill="url(#fortnitefpsboosterbnAc)"/>
  <ellipse cx="150" cy="160" rx="120" ry="90" fill="#9d4edd" opacity="0.07"/>
  <ellipse cx="1130" cy="160" rx="120" ry="90" fill="#c77dff" opacity="0.07"/>

  <g transform="translate(64,108)" filter="url(#fortnitefpsboosterbnSh)">
    <polygon points="34,0 66,18 66,54 34,72 2,54 2,18" fill="#1a0a2e" stroke="url(#fortnitefpsboosterbnAc)" stroke-width="2"/>
    <path d="M20 38 L34 16 L48 38 L42 38 L42 50 L26 50 L26 38 Z" fill="#c77dff"/>
  </g>
  <text x="160" y="138" font-family="'Segoe UI', 'Helvetica Neue', Arial, sans-serif" font-size="54" font-weight="700" letter-spacing="-1" fill="#ffffff">Fortnite</text>
  <text x="160" y="198" font-family="'Segoe UI', 'Helvetica Neue', Arial, sans-serif" font-size="54" font-weight="700" letter-spacing="-1" fill="url(#fortnitefpsboosterbnAc)">FPS Booster</text>
  <text x="162" y="238" font-family="'Segoe UI', Arial, sans-serif" font-size="18" fill="#8b949e">One-click Windows optimizer for smoother gameplay and higher frame rates</text>
  <g transform="translate(160,258)">
    <rect x="0" y="0" width="132" height="32" fill="#21262d" rx="16" stroke="#30363d"/>
    <text x="16" y="21" font-family="'Segoe UI', Arial, sans-serif" font-size="13" fill="#9d4edd" font-weight="600">Windows 10 / 11</text>
    <rect x="146" y="0" width="88" height="32" fill="#21262d" rx="16" stroke="#30363d"/>
    <text x="162" y="21" font-family="'Segoe UI', Arial, sans-serif" font-size="13" fill="#c77dff" font-weight="600">One-Click</text>
    <rect x="248" y="0" width="72" height="32" fill="#21262d" rx="16" stroke="#30363d"/>
    <text x="264" y="21" font-family="'Segoe UI', Arial, sans-serif" font-size="13" fill="#39d353" font-weight="600">Free</text>
  </g>
</svg>
