<svg xmlns="http://www.w3.org/2000/svg" width="460" height="80" viewBox="0 0 460 80">
  <defs>
    <linearGradient id="fortnitefpsboosterbtnBg" x1="0%" y1="0%" x2="100%" y2="100%">
      <stop offset="0%" stop-color="#1a0a2e"/>
      <stop offset="100%" stop-color="#0d1117"/>
    </linearGradient>
    <linearGradient id="fortnitefpsboosterbtnGl" x1="0%" y1="0%" x2="100%" y2="0%">
      <stop offset="0%" stop-color="#9d4edd"/>
      <stop offset="100%" stop-color="#c77dff"/>
    </linearGradient>
    <filter id="fortnitefpsboosterbtnSh">
      <feDropShadow dx="0" dy="2" stdDeviation="6" flood-color="#9d4edd" flood-opacity="0.35"/>
    </filter>
  </defs>

  <rect x="2" y="2" width="456" height="76" rx="14" fill="url(#fortnitefpsboosterbtnBg)" filter="url(#fortnitefpsboosterbtnSh)"/>
  <rect x="2" y="2" width="456" height="76" rx="14" fill="none" stroke="url(#fortnitefpsboosterbtnGl)" stroke-width="2"/>
  <rect x="3" y="3" width="454" height="20" rx="13" fill="#ffffff" opacity="0.04"/>


  <g transform="translate(22,18)" filter="url(#fortnitefpsboosterbtnSh)">
    <polygon points="30,4 56,18 56,42 30,56 4,42 4,18" fill="#1a0a2e" stroke="url(#fortnitefpsboosterbtnGl)" stroke-width="2"/>
    <polygon points="30,12 48,22 48,38 30,48 12,38 12,22" fill="#9d4edd" opacity="0.25"/>
    <path d="M22 32 L30 18 L38 32 L34 32 L34 40 L26 40 L26 32 Z" fill="#c77dff"/>
    <rect x="28" y="40" width="4" height="6" rx="1" fill="#c77dff"/>
  </g>

  <text x="84" y="29" font-family="'Segoe UI', 'Helvetica Neue', Arial, sans-serif" font-size="11" font-weight="600" fill="#9d4edd" letter-spacing="1.5">FORTNITE · FREE</text>
  <text x="84" y="54" font-family="'Segoe UI', 'Helvetica Neue', Arial, sans-serif" font-size="22" font-weight="700" fill="#ffffff" letter-spacing="0.2">Download FPS Booster</text>

  <polyline points="425,32 438,40 425,48" fill="none" stroke="url(#fortnitefpsboosterbtnGl)" stroke-width="3" stroke-linecap="round" stroke-linejoin="round"/>
</svg>
